<svg width="17" height="14" viewBox="0 0 17 14" fill="none" xmlns="http://www.w3.org/2000/svg">
<path d="M16.2856 2.47748C15.6906 2.73848 15.0566 2.91148 14.3956 2.99548C15.0756 2.58948 15.5946 1.95148 15.8386 1.18248C15.2046 1.56048 14.5046 1.82748 13.7586 1.97648C13.1566 1.33548 12.2986 0.938477 11.3626 0.938477C9.54664 0.938477 8.08464 2.41248 8.08464 4.21948C8.08464 4.47948 8.10664 4.72948 8.16064 4.96748C5.43364 4.83448 3.02064 3.52748 1.39964 1.53648C1.11664 2.02748 0.950645 2.58948 0.950645 3.19448C0.950645 4.33048 1.53564 5.33748 2.40764 5.92048C1.88064 5.91048 1.36364 5.75748 0.925645 5.51648C0.925645 5.52648 0.925645 5.53948 0.925645 5.55248C0.925645 7.14648 2.06264 8.47048 3.55364 8.77548C3.28664 8.84848 2.99564 8.88348 2.69364 8.88348C2.48364 8.88348 2.27164 8.87148 2.07264 8.82748C2.49764 10.1265 3.70364 11.0815 5.13764 11.1125C4.02164 11.9855 2.60464 12.5115 1.07064 12.5115C0.801645 12.5115 0.543645 12.4995 0.285645 12.4665C1.73864 13.4035 3.46064 13.9385 5.31764 13.9385C11.3536 13.9385 14.6536 8.93848 14.6536 4.60448C14.6536 4.45948 14.6486 4.31948 14.6416 4.18048C15.2926 3.71848 15.8396 3.14148 16.2856 2.47748Z" fill="#B0B8BC"/>
</svg>
