<svg width="17" height="12" viewBox="0 0 17 12" fill="none" xmlns="http://www.w3.org/2000/svg">
<path fill-rule="evenodd" clip-rule="evenodd" d="M13.7416 0.363973C14.7006 0.417973 15.1716 0.559973 15.6056 1.33197C16.0576 2.10297 16.2856 3.43097 16.2856 5.76997V5.77297V5.77797C16.2856 8.10597 16.0576 9.44397 15.6066 10.207C15.1726 10.979 14.7016 11.119 13.7426 11.184C12.7836 11.239 10.3746 11.272 8.28765 11.272C6.19664 11.272 3.78664 11.239 2.82864 11.183C1.87164 11.118 1.40064 10.978 0.962645 10.206C0.515645 9.44297 0.285645 8.10497 0.285645 5.77697V5.77497V5.77197V5.76897C0.285645 3.43097 0.515645 2.10297 0.962645 1.33197C1.40064 0.558973 1.87264 0.417973 2.82964 0.362973C3.78664 0.298973 6.19664 0.271973 8.28765 0.271973C10.3746 0.271973 12.7836 0.298973 13.7416 0.363973ZM11.2856 5.77197L6.28564 2.77197V8.77197L11.2856 5.77197Z" fill="#B0B8BC"/>
</svg>
